<svg width="152" height="24" viewBox="0 0 152 24" fill="none" xmlns="http://www.w3.org/2000/svg">
<path d="M12.712 1.94201L15.681 7.95701L22.319 8.92201C22.97 9.01701 23.23 9.81701 22.759 10.276L17.955 14.958L19.089 21.57C19.2 22.219 18.519 22.713 17.937 22.407L12 19.286L6.062 22.408C5.48 22.714 4.799 22.219 4.91 21.57L6.044 14.958L1.24 10.276C0.768998 9.81701 1.029 9.01601 1.68 8.92201L8.318 7.95701L11.287 1.94201C11.579 1.35201 12.421 1.35201 12.712 1.94201Z" fill="#FFAC0C"/>
<path d="M44.712 1.94201L47.681 7.95701L54.319 8.92201C54.97 9.01701 55.23 9.81701 54.759 10.276L49.955 14.958L51.089 21.57C51.2 22.219 50.519 22.713 49.937 22.407L44 19.286L38.062 22.408C37.48 22.714 36.799 22.219 36.91 21.57L38.044 14.958L33.24 10.276C32.769 9.81701 33.029 9.01601 33.68 8.92201L40.318 7.95701L43.287 1.94201C43.579 1.35201 44.421 1.35201 44.712 1.94201Z" fill="#FFAC0C"/>
<path d="M76.712 1.94201L79.681 7.95701L86.319 8.92201C86.97 9.01701 87.23 9.81701 86.759 10.276L81.955 14.958L83.089 21.57C83.2 22.219 82.519 22.713 81.937 22.407L76 19.286L70.062 22.408C69.48 22.714 68.799 22.219 68.91 21.57L70.044 14.958L65.24 10.276C64.769 9.81701 65.029 9.01601 65.68 8.92201L72.318 7.95701L75.287 1.94201C75.579 1.35201 76.421 1.35201 76.712 1.94201Z" fill="#FFAC0C"/>
<path d="M108.712 1.94201L111.681 7.95701L118.319 8.92201C118.97 9.01701 119.23 9.81701 118.759 10.276L113.955 14.958L115.089 21.57C115.2 22.219 114.519 22.713 113.937 22.407L108 19.286L102.062 22.408C101.48 22.714 100.799 22.219 100.91 21.57L102.044 14.958L97.24 10.276C96.769 9.81701 97.029 9.01601 97.68 8.92201L104.318 7.95701L107.287 1.94201C107.579 1.35201 108.421 1.35201 108.712 1.94201Z" fill="#FFAC0C"/>
<path d="M140.712 1.94201L143.681 7.95701L150.319 8.92201C150.97 9.01701 151.23 9.81701 150.759 10.276L145.955 14.958L147.089 21.57C147.2 22.219 146.519 22.713 145.937 22.407L140 19.286L134.062 22.408C133.48 22.714 132.799 22.219 132.91 21.57L134.044 14.958L129.24 10.276C128.769 9.81701 129.029 9.01601 129.68 8.92201L136.318 7.95701L139.287 1.94201C139.579 1.35201 140.421 1.35201 140.712 1.94201Z" fill="#FFAC0C"/>
</svg>
